<mxfile host="app.diagrams.net" modified="2023-06-28T07:43:43.817Z" agent="Mozilla/5.0 (Windows NT 10.0; Win64; x64) AppleWebKit/537.36 (KHTML, like Gecko) Chrome/114.0.0.0 Safari/537.36" version="21.5.1" etag="hwdbusMtPdpM7X0WaNGv" type="github">
  <diagram name="ページ1" id="7oUNUjFH_1P6jVv7n3U9">
    <mxGraphModel>
      <root>
        <mxCell id="0" />
        <mxCell id="1" parent="0" />
      </root>
    </mxGraphModel>
  </diagram>
</mxfile>
